# xmcd
#
# Track frame offsets:
#	150
#	33793
#	68554
#	106372
#
# Disc length: 1789 seconds
#
# Revision: 0
# Processed by: cddbd v1.5.2PL0 Copyright (c) Steve Scherf et al.
# Submitted via: audiograbber 1.83.01
#
DISCID=2706fb04
DTITLE=Grateful Dead - 94-07-02 Shoreline Amphitheatre, Mountain View CA
DYEAR=1900
DGENRE=
TTITLE0=Space
TTITLE1=Stella Blue
TTITLE2=Throwing Stones
TTITLE3=One More Saturday Night
EXTD=
EXTT0=
EXTT1=
EXTT2=
EXTT3=
PLAYORDER=
